<?xml version="1.0" encoding="utf-8"?>
<!-- Generator: Adobe Illustrator 22.1.0, SVG Export Plug-In . SVG Version: 6.00 Build 0)  -->
<svg version="1.1" xmlns="http://www.w3.org/2000/svg" xmlns:xlink="http://www.w3.org/1999/xlink" x="0px" y="0px"
	 viewBox="0 0 1176 735" style="enable-background:new 0 0 1176 735;" xml:space="preserve">
<style type="text/css">
	.st0{fill:#FF9999;}
	.st1{fill:#FF2727;}
	.st2{fill:none;stroke:#696969;stroke-width:0.5102;stroke-linecap:round;stroke-linejoin:round;stroke-miterlimit:10;}
	.st3{fill:none;}
	.st4{fill:none;stroke:#FFFFFF;stroke-linecap:round;stroke-linejoin:round;stroke-miterlimit:10;}
	.st5{fill:none;stroke:#231F20;stroke-width:0.5;stroke-linecap:round;stroke-linejoin:round;stroke-miterlimit:10;}

		.st6{fill:none;stroke:#58595B;stroke-width:0.3685;stroke-linecap:round;stroke-linejoin:round;stroke-miterlimit:10;stroke-dasharray:5.6693,5.6693;}
	.st7{fill:#FFFFFF;}

<!-- TODO eventually figure out how to get these styles so that i dont need to copy in -->
	svg{
	  border: none;
	}

	.hide {
	  opacity:0;
	}

	.show {
		transition: 2s;
	  opacity:1;
	}


</style>
<g id="pointA">
	<g>
		<circle class="st0" cx="885.5" cy="542.5" r="15.5"/>
		<!-- NEED TO SET THE CLASS OF PIC TO HIDE INITIALLY -->
		<g id="pic_D" class="hide">
				<image style="overflow:visible;" width="3000" height="1687" xlink:href="perspective.jpg"  transform="matrix(2.840094e-12 -6.325857e-02 6.325857e-02 2.840094e-12 566 251.7757)">
			</image>
		</g>
	</g>
</g>
<g id="pointB">
	<g>
		<circle class="st1" cx="268.4" cy="363.4" r="6.6"/>
	</g>
</g>
<g id="pointC">
	<g>
		<circle class="st0" cx="634.5" cy="424.5" r="15.5"/>
	</g>
</g>
<g id="pointD">
	<g>
		<circle class="st1" cx="697.4" cy="147.4" r="6.6"/>
		<!-- NEED TO SET THE CLASS OF PIC TO HIDE INITIALLY -->
		<g id="pic_A" class="hide">
				<image style="overflow:visible;" width="3000" height="1687" xlink:href="perspective.jpg"  transform="matrix(6.325857e-02 0 0 6.325857e-02 791 402)">
			</image>
		</g>
	</g>
</g>
<g id="pointE">
	<polygon class="st1" points="968,201 943,212 968,223 	"/>
</g>


<g id="plan_linework">
	<g id="_x32_D_x24_hatch_x24_EXTRA_LIGHT">
	</g>
	<g id="_x32_D_x24_lines_x24_8">
	</g>
	<g id="Layer_17">
	</g>
	<g id="_x32_D_x24_lines_x24_5">
	</g>
	<g id="_x32_D_x24_lines_x24_DASH">
	</g>
	<g id="_x32_D_x24_lines_x24_3">
	</g>
	<g id="white_border">
		<g id="POLYLINE_286_">
			<line class="st2" x1="349.9" y1="556.5" x2="350.8" y2="557.2"/>
		</g>
		<g id="POLYLINE_253_">
			<rect x="127.7" y="3" class="st3" width="947.5" height="732.2"/>
		</g>
		<g id="POLYLINE_212_">
			<polyline class="st4" points="922.4,678.3 922.4,685.4 932.7,685.4 932.7,678.3 953.4,678.3 953.4,685.4 974.1,685.4
				974.1,678.3 1025.8,678.3 1025.8,685.4 			"/>
		</g>
		<g id="POLYLINE_163_">
			<line class="st5" x1="351.5" y1="554.5" x2="349.9" y2="556.5"/>
		</g>
		<g id="POLYLINE_118_">
			<polyline class="st6" points="605.1,234.6 764.9,343.3 809.4,371.5 855.7,399.2 879.5,412.6 904,425.7 929.1,438.5 950.9,449
				979.1,461.7 999.2,470.2 1020.7,478.7 1058.1,492.5 1075.2,498.5 			"/>
		</g>
		<g id="POLYLINE_117_">
			<polyline class="st6" points="834.7,735.2 789.8,713.8 761.3,699.3 732.9,684.1 705.6,668.8 653.9,638.1 605.6,607.7
				413.6,477.5 342.7,431.6 			"/>
		</g>
		<g id="POLYLINE_46_">
			<polyline class="st6" points="513.4,350.8 688.3,469.7 746.6,506.3 777.5,524.5 809.4,542.5 842.5,560.2 877.1,577.4
				902.7,589.4 928.7,600.8 948.8,609.1 983.1,622.4 1016.2,634.4 1075.2,653.9 			"/>
		</g>
		<g id="POLYLINE_45_">
			<polyline class="st6" points="979,3 1027.5,33.7 1054.1,49.6 1075.2,61.4 			"/>
		</g>
		<g id="POLYLINE_41_">
			<polyline class="st6" points="779.3,3 922.6,100.6 970.8,130.9 1002.8,149.8 1034.6,167.3 1050.5,175.6 1075.2,187.6 			"/>
		</g>
		<g id="POLYLINE_34_">
			<polyline class="st6" points="571.9,3 602.1,21.1 632,40 868.5,199.6 898.5,218.6 928.9,237 959.6,254.7 990.7,271.4 1022.3,287
				1038.3,294.4 1054.5,301.5 1075.2,310.1 			"/>
		</g>
		<g id="POLYLINE_33_">
			<polyline class="st6" points="127.7,359.7 146.3,361.5 165.2,363.9 178,365.8 191.2,368.2 201.6,370.3 211.9,372.7 223,375.5
				231.9,378.1 238.2,380.1 244.2,382.1 252.7,385.2 262.1,388.9 270.7,392.7 282.7,398.3 291.5,402.7 310.5,412.8 334.5,426.7
				342.7,431.6 			"/>
		</g>
		<g id="POLYLINE_32_">
			<polyline class="st6" points="127.7,198.4 139.8,199.3 158.8,201.1 177.5,203.2 195.5,205.7 208.5,207.8 221.4,210.2
				238.1,213.6 254.3,217.4 269.6,221.5 284.9,226.1 299.3,230.9 306.4,233.5 314.1,236.5 330,243 346.7,250.6 367.2,260.7
				376.2,265.4 392.9,274.6 412,285.6 442.9,304.5 513.4,350.8 			"/>
		</g>
		<g id="POLYLINE_31_">
			<polyline class="st6" points="127.7,50.4 148.6,51.8 166.9,53.4 185.2,55.4 203.2,57.6 222.5,60.5 248.5,65 265.7,68.5
				282.5,72.3 295,75.4 307.4,78.7 323.7,83.5 334.5,86.9 349.2,91.9 365.3,97.9 379.5,103.6 396.6,111 412.6,118.4 424.3,124.1
				441.9,133.1 471.9,149.6 507.8,170.9 534.8,187.9 605.1,234.6 			"/>
		</g>
		<g id="POLYLINE_30_">
			<polyline class="st6" points="127.7,722.8 135.1,726.7 145.4,732.6 149.8,735.2 			"/>
		</g>
		<g id="POLYLINE_29_">
			<polyline class="st6" points="127.7,524.2 139.2,525.6 147.3,526.8 157.1,528.4 164.3,529.8 170.1,531.1 176.8,532.7
				182.6,534.3 186.2,535.4 189,536.3 193.2,537.8 194.8,538.4 197.9,539.6 202.5,541.6 207.6,543.9 212.3,546.2 218.6,549.3
				232.6,556.9 252,568.1 275.3,582.5 332.1,620.1 501.1,735.2 			"/>
		</g>
		<path class="st7" d="M126.8,3.8V736h947.5V3.8H126.8z M1042.3,707.6H159.8V30h882.5V707.6z"/>
	</g>
</g>
</svg>
